<svg width="22" height="22" viewBox="0 0 22 22" fill="none" xmlns="http://www.w3.org/2000/svg">
<path d="M11.25 0.5C5.475 0.5 0.75 5.225 0.75 11C0.75 16.775 5.475 21.5 11.25 21.5C17.025 21.5 21.75 16.775 21.75 11C21.75 5.225 17.025 0.5 11.25 0.5ZM11.25 20.225C6.15 20.225 2.025 16.1 2.025 11C2.025 5.9 6.15 1.775 11.25 1.775C16.35 1.775 20.475 5.9 20.475 11C20.475 16.1 16.35 20.225 11.25 20.225Z" fill="black"/>
<path d="M11.85 7.32495H10.65V10.4H7.875V11.6H10.65V14.825H11.85V11.6H14.7V10.4H11.85V7.32495Z" fill="black"/>
</svg>
