<svg width="19" height="20" viewBox="0 0 19 20" fill="none" xmlns="http://www.w3.org/2000/svg">
<path d="M9.6651 0C12.345 0 14.5483 2.10591 14.6602 4.77432H14.634C14.6372 4.85189 14.6223 4.92913 14.5905 5H14.7466C15.9636 5 17.238 5.84351 17.749 7.8798L17.8045 8.12007L18.5734 14.3147C19.1267 18.2657 16.9651 19.9273 14.0164 19.9977L13.8186 20H5.52869C2.53193 20 0.222701 18.908 0.730437 14.5836L0.765061 14.3147L1.5428 8.12007C1.9263 5.92719 3.21377 5.06225 4.45428 5.00326L4.59187 5H4.67004C4.65686 4.92535 4.65686 4.84898 4.67004 4.77432C4.78188 2.10591 6.98515 0 9.6651 0ZM6.75715 8.32929C6.26905 8.32929 5.87336 8.73655 5.87336 9.23893C5.87336 9.74131 6.26905 10.1486 6.75715 10.1486C7.24526 10.1486 7.64094 9.74131 7.64094 9.23893L7.63406 9.12483C7.57952 8.67631 7.20771 8.32929 6.75715 8.32929ZM12.546 8.32929C12.0579 8.32929 11.6622 8.73655 11.6622 9.23893C11.6622 9.74131 12.0579 10.1486 12.546 10.1486C13.0341 10.1486 13.4298 9.74131 13.4298 9.23893C13.4298 8.73655 13.0341 8.32929 12.546 8.32929ZM9.62591 1.30238C7.7018 1.30238 6.142 2.85682 6.142 4.77432C6.15518 4.84898 6.15518 4.92535 6.142 5H13.1534C13.1255 4.92794 13.1108 4.85153 13.1098 4.77432C13.1098 2.85682 11.55 1.30238 9.62591 1.30238Z" fill="black"/>
</svg>
