<svg width="55" height="21" viewBox="0 0 55 21" fill="none" xmlns="http://www.w3.org/2000/svg">
<g clip-path="url(#clip0_0_393)">
<path d="M13.0208 0C10.8886 0 8.84366 0.847035 7.33593 2.35477L2.41532 7.27538C0.907582 8.78311 0.0605469 10.828 0.0605469 12.9603C0.0605469 17.4005 3.66004 21 8.10026 21C10.2325 21 12.2774 20.1529 13.7852 18.6452L17.1888 15.2416C17.1888 15.2415 17.1888 15.2417 17.1888 15.2416L27.1057 5.32462C27.8258 4.60454 28.8025 4.2 29.8208 4.2C31.5258 4.2 32.9712 5.31119 33.4723 6.84885L36.6021 3.71907C35.1743 1.48284 32.6707 0 29.8208 0C27.6886 0 25.6437 0.847035 24.1359 2.35477L10.8153 15.6754C10.0953 16.3955 9.11862 16.8 8.10026 16.8C5.97963 16.8 4.26055 15.0809 4.26055 12.9603C4.26055 11.9419 4.66508 10.9653 5.38517 10.2452L10.3057 5.32462C11.0258 4.60454 12.0025 4.2 13.0208 4.2C14.7258 4.2 16.1712 5.31124 16.6723 6.84895L19.8022 3.71915C18.3744 1.48288 15.8708 0 13.0208 0Z" fill="black"/>
<path d="M27.6152 15.6754C26.8951 16.3955 25.9185 16.8 24.9001 16.8C23.1954 16.8 21.7501 15.6891 21.2488 14.1517L18.1191 17.2814C19.547 19.5173 22.0504 21 24.9001 21C27.0324 21 29.0773 20.1529 30.585 18.6452L43.9056 5.32462C44.6257 4.60454 45.6023 4.2 46.6207 4.2C48.7413 4.2 50.4604 5.91909 50.4604 8.03971C50.4604 9.05807 50.0559 10.0347 49.3358 10.7548L44.4152 15.6754C43.6951 16.3955 42.7185 16.8 41.7001 16.8C39.9953 16.8 38.5499 15.6889 38.0487 14.1513L34.919 17.2811C36.3468 19.5173 38.8503 21 41.7001 21C43.8324 21 45.8773 20.1529 47.385 18.6452L52.3056 13.7246C53.8133 12.2169 54.6604 10.172 54.6604 8.03971C54.6604 3.5995 51.0609 0 46.6207 0C44.4884 0 42.4435 0.847035 40.9358 2.35477L27.6152 15.6754Z" fill="black"/>
</g>
<defs>
<clipPath id="clip0_0_393">
<rect width="54.6" height="21" fill="white" transform="translate(0.0595703)"/>
</clipPath>
</defs>
</svg>
