<svg width="55" height="21" viewBox="0 0 55 21" fill="none" xmlns="http://www.w3.org/2000/svg">
<g clip-path="url(#clip0_0_255)">
<path d="M12.9613 0C10.829 0 8.78409 0.847035 7.27636 2.35477L2.35575 7.27538C0.848012 8.78311 0.000976562 10.828 0.000976562 12.9603C0.000976562 17.4005 3.60047 21 8.04069 21C10.173 21 12.2179 20.1529 13.7256 18.6452L17.1292 15.2416C17.1292 15.2415 17.1293 15.2417 17.1292 15.2416L27.0462 5.32462C27.7663 4.60454 28.7429 4.2 29.7613 4.2C31.4662 4.2 32.9116 5.31119 33.4127 6.84885L36.5425 3.71907C35.1147 1.48284 32.6112 0 29.7613 0C27.629 0 25.5841 0.847035 24.0764 2.35477L10.7558 15.6754C10.0357 16.3955 9.05905 16.8 8.04069 16.8C5.92006 16.8 4.20098 15.0809 4.20098 12.9603C4.20098 11.9419 4.60551 10.9653 5.3256 10.2452L10.2462 5.32462C10.9663 4.60454 11.9429 4.2 12.9613 4.2C14.6663 4.2 16.1116 5.31124 16.6127 6.84895L19.7426 3.71915C18.3148 1.48288 15.8112 0 12.9613 0Z" fill="white"/>
<path d="M27.5556 15.6754C26.8355 16.3955 25.8589 16.8 24.8405 16.8C23.1358 16.8 21.6905 15.6891 21.1893 14.1517L18.0596 17.2814C19.4874 19.5173 21.9908 21 24.8405 21C26.9728 21 29.0177 20.1529 30.5255 18.6452L43.846 5.32462C44.5661 4.60454 45.5428 4.2 46.5611 4.2C48.6818 4.2 50.4008 5.91909 50.4008 8.03971C50.4008 9.05807 49.9963 10.0347 49.2762 10.7548L44.3556 15.6754C43.6355 16.3955 42.6589 16.8 41.6405 16.8C39.9357 16.8 38.4903 15.6889 37.9891 14.1513L34.8594 17.2811C36.2872 19.5173 38.7907 21 41.6405 21C43.7728 21 45.8177 20.1529 47.3254 18.6452L52.246 13.7246C53.7538 12.2169 54.6008 10.172 54.6008 8.03971C54.6008 3.5995 51.0014 0 46.5611 0C44.4289 0 42.3839 0.847035 40.8762 2.35477L27.5556 15.6754Z" fill="white"/>
</g>
<defs>
<clipPath id="clip0_0_255">
<rect width="54.6" height="21" fill="white"/>
</clipPath>
</defs>
</svg>
