<svg width="26" height="26" viewBox="0 0 26 26" fill="none" xmlns="http://www.w3.org/2000/svg">
<path d="M7.25781 10.0317L12.9995 13.3576L18.6978 10.0534" stroke="#B9B9B9" stroke-width="1.5" stroke-linecap="round" stroke-linejoin="round"/>
<path d="M13 19.2508V13.3467" stroke="#B9B9B9" stroke-width="1.5" stroke-linecap="round" stroke-linejoin="round"/>
<path d="M11.6565 6.81434L8.18977 8.74267C7.40977 9.176 6.75977 10.2702 6.75977 11.1693V14.8418C6.75977 15.741 7.39894 16.8352 8.18977 17.2685L11.6565 19.1968C12.3931 19.6085 13.6064 19.6085 14.3539 19.1968L17.8206 17.2685C18.6006 16.8352 19.2506 15.741 19.2506 14.8418V11.1585C19.2506 10.2593 18.6115 9.16517 17.8206 8.73183L14.3539 6.8035C13.6064 6.39183 12.3931 6.39184 11.6565 6.81434Z" stroke="#B9B9B9" stroke-width="1.5" stroke-linecap="round" stroke-linejoin="round"/>
<path d="M23.8333 16.25C23.8333 20.4425 20.4425 23.8333 16.25 23.8333L17.3875 21.9375" stroke="#B9B9B9" stroke-width="1.5" stroke-linecap="round" stroke-linejoin="round"/>
<path d="M2.16602 9.74984C2.16602 5.55734 5.55685 2.1665 9.74935 2.1665L8.61186 4.06234" stroke="#B9B9B9" stroke-width="1.5" stroke-linecap="round" stroke-linejoin="round"/>
</svg>
