<svg width="26" height="24" viewBox="0 0 26 24" fill="none" xmlns="http://www.w3.org/2000/svg">
<path d="M12.9996 14H14.0829C15.2746 14 16.2496 13.1 16.2496 12V2H6.49957C4.87457 2 3.45542 2.82999 2.71875 4.04999" stroke="#B9B9B9" stroke-width="1.5" stroke-linecap="round" stroke-linejoin="round"/>
<path d="M2.16602 17C2.16602 18.66 3.61768 20 5.41602 20H6.49935C6.49935 18.9 7.47435 18 8.66602 18C9.85768 18 10.8327 18.9 10.8327 20H15.166C15.166 18.9 16.141 18 17.3327 18C18.5243 18 19.4993 18.9 19.4993 20H20.5827C22.381 20 23.8327 18.66 23.8327 17V14H20.5827C19.9868 14 19.4993 13.55 19.4993 13V10C19.4993 9.45 19.9868 9 20.5827 9H21.9802L20.1277 6.01001C19.7377 5.39001 19.0227 5 18.2427 5H16.2493V12C16.2493 13.1 15.2743 14 14.0827 14H12.9993" stroke="#B9B9B9" stroke-width="1.5" stroke-linecap="round" stroke-linejoin="round"/>
<path d="M8.66667 22C9.86328 22 10.8333 21.1046 10.8333 20C10.8333 18.8954 9.86328 18 8.66667 18C7.47005 18 6.5 18.8954 6.5 20C6.5 21.1046 7.47005 22 8.66667 22Z" stroke="#B9B9B9" stroke-width="1.5" stroke-linecap="round" stroke-linejoin="round"/>
<path d="M17.3327 22C18.5293 22 19.4993 21.1046 19.4993 20C19.4993 18.8954 18.5293 18 17.3327 18C16.1361 18 15.166 18.8954 15.166 20C15.166 21.1046 16.1361 22 17.3327 22Z" stroke="#B9B9B9" stroke-width="1.5" stroke-linecap="round" stroke-linejoin="round"/>
<path d="M23.8333 12V14H20.5833C19.9875 14 19.5 13.55 19.5 13V10C19.5 9.45 19.9875 9 20.5833 9H21.9808L23.8333 12Z" stroke="#B9B9B9" stroke-width="1.5" stroke-linecap="round" stroke-linejoin="round"/>
<path d="M2.16602 8H8.66602" stroke="#B9B9B9" stroke-width="1.5" stroke-linecap="round" stroke-linejoin="round"/>
<path d="M2.16602 11H6.49935" stroke="#B9B9B9" stroke-width="1.5" stroke-linecap="round" stroke-linejoin="round"/>
<path d="M2.16602 14H4.33268" stroke="#B9B9B9" stroke-width="1.5" stroke-linecap="round" stroke-linejoin="round"/>
</svg>
