<svg width="21" height="20" viewBox="0 0 21 20" fill="none" xmlns="http://www.w3.org/2000/svg">
<path d="M10.6602 10C9.28516 10 8.10807 9.51042 7.12891 8.53125C6.14974 7.55208 5.66016 6.375 5.66016 5C5.66016 3.625 6.14974 2.44792 7.12891 1.46875C8.10807 0.489584 9.28516 0 10.6602 0C12.0352 0 13.2122 0.489584 14.1914 1.46875C15.1706 2.44792 15.6602 3.625 15.6602 5C15.6602 6.375 15.1706 7.55208 14.1914 8.53125C13.2122 9.51042 12.0352 10 10.6602 10ZM0.660156 20V16.5C0.660156 15.7917 0.842657 15.1404 1.20766 14.5463C1.57266 13.9521 2.05682 13.4992 2.66016 13.1875C3.95182 12.5417 5.26432 12.0571 6.59766 11.7338C7.93099 11.4104 9.28516 11.2492 10.6602 11.25C12.0352 11.25 13.3893 11.4117 14.7227 11.735C16.056 12.0583 17.3685 12.5425 18.6602 13.1875C19.2643 13.5 19.7489 13.9533 20.1139 14.5475C20.4789 15.1417 20.661 15.7925 20.6602 16.5V20H0.660156Z" fill="black"/>
</svg>
