<svg width="95" height="95" viewBox="0 0 95 95" fill="none" xmlns="http://www.w3.org/2000/svg">
<path d="M47.4996 5.27777C39.1488 5.27777 30.9856 7.75406 24.0422 12.3935C17.0988 17.0329 11.687 23.6271 8.49134 31.3422C5.29564 39.0573 4.4595 47.5468 6.08865 55.7371C7.7178 63.9274 11.7391 71.4507 17.644 77.3556C23.5488 83.2605 31.0721 87.2818 39.2624 88.9109C47.4527 90.5401 55.9422 89.7039 63.6573 86.5082C71.3724 83.3125 77.9666 77.9008 82.6061 70.9574C87.2455 64.014 89.7218 55.8508 89.7218 47.5C89.7218 36.302 85.2734 25.5626 77.3552 17.6444C69.437 9.72617 58.6976 5.27777 47.4996 5.27777ZM47.4996 84.4444C40.1927 84.4444 33.0498 82.2777 26.9744 78.2182C20.8989 74.1587 16.1636 68.3887 13.3674 61.638C10.5711 54.8873 9.83951 47.459 11.265 40.2925C12.6905 33.126 16.2091 26.5431 21.3759 21.3763C26.5427 16.2096 33.1256 12.6909 40.2921 11.2654C47.4586 9.83992 54.8869 10.5715 61.6376 13.3678C68.3883 16.164 74.1583 20.8993 78.2178 26.9748C82.2773 33.0502 84.444 40.1931 84.444 47.5C84.444 57.2983 80.5517 66.6952 73.6232 73.6237C66.6948 80.5521 57.2979 84.4444 47.4996 84.4444Z" fill="black"/>
<path d="M66.3945 42.4333C69.0179 42.4333 71.1445 40.3067 71.1445 37.6833C71.1445 35.06 69.0179 32.9333 66.3945 32.9333C63.7712 32.9333 61.6445 35.06 61.6445 37.6833C61.6445 40.3067 63.7712 42.4333 66.3945 42.4333Z" fill="black"/>
<path d="M30.1094 42.4333C32.7327 42.4333 34.8594 40.3067 34.8594 37.6833C34.8594 35.06 32.7327 32.9333 30.1094 32.9333C27.486 32.9333 25.3594 35.06 25.3594 37.6833C25.3594 40.3067 27.486 42.4333 30.1094 42.4333Z" fill="black"/>
<path d="M47.9219 52.7778C44.1361 52.7784 40.4053 53.6841 37.0406 55.4192C33.6758 57.1544 30.7746 59.6688 28.5789 62.7528C28.1729 63.3232 28.0102 64.0315 28.1265 64.7218C28.2428 65.4122 28.6286 66.0281 29.199 66.434C29.7694 66.8399 30.4777 67.0027 31.1681 66.8864C31.8584 66.7701 32.4743 66.3843 32.8803 65.8139C34.5676 63.4439 36.7908 61.506 39.3688 60.158C41.9469 58.8099 44.8069 58.0898 47.716 58.0564C50.625 58.023 53.5008 58.6771 56.1092 59.9655C58.7176 61.254 60.9848 63.1403 62.7261 65.4708C63.146 66.0307 63.7712 66.4009 64.464 66.4999C65.1569 66.5988 65.8606 66.4185 66.4205 65.9986C66.9804 65.5787 67.3506 64.9535 67.4496 64.2607C67.5486 63.5678 67.3682 62.8641 66.9483 62.3042C64.7362 59.3461 61.8645 56.9448 58.5617 55.291C55.2588 53.6373 51.6157 52.7767 47.9219 52.7778Z" fill="black"/>
</svg>
