<svg width="41" height="41" viewBox="0 0 41 41" fill="none" xmlns="http://www.w3.org/2000/svg">
<rect x="0.5" y="0.5" width="40" height="40" rx="20" fill="#282828"/>
<path d="M27.25 27.25L23.8855 23.8795M25.75 19.375C25.75 21.0658 25.0784 22.6873 23.8828 23.8828C22.6873 25.0784 21.0658 25.75 19.375 25.75C17.6842 25.75 16.0627 25.0784 14.8672 23.8828C13.6716 22.6873 13 21.0658 13 19.375C13 17.6842 13.6716 16.0627 14.8672 14.8672C16.0627 13.6716 17.6842 13 19.375 13C21.0658 13 22.6873 13.6716 23.8828 14.8672C25.0784 16.0627 25.75 17.6842 25.75 19.375Z" stroke="white" stroke-width="2" stroke-linecap="round"/>
</svg>
