<svg width="89" height="17" viewBox="0 0 89 17" fill="none" xmlns="http://www.w3.org/2000/svg">
<path d="M8.74786 2.45967C8.48931 2.0141 7.84586 2.01409 7.58731 2.45967L5.76646 5.59765C5.63874 5.81776 5.41799 5.96796 5.16636 6.00597L1.75398 6.52137C1.18085 6.60793 0.979811 7.33156 1.42616 7.70136L3.96824 9.80744C4.20355 10.0024 4.31419 10.3099 4.25703 10.6101L3.59206 14.1022C3.48694 14.6542 4.06645 15.0831 4.56369 14.8213L7.77687 13.1294C8.02143 13.0007 8.31374 13.0007 8.5583 13.1294L11.7715 14.8213C12.2687 15.0831 12.8482 14.6542 12.7431 14.1022L12.0781 10.6101C12.021 10.3099 12.1316 10.0024 12.3669 9.80744L14.909 7.70136C15.3554 7.33156 15.1543 6.60793 14.5812 6.52137L11.1688 6.00597C10.9172 5.96796 10.6964 5.81776 10.5687 5.59765L8.74786 2.45967Z" fill="#A6A6A6"/>
<path d="M26.8494 2.45967C26.5909 2.0141 25.9474 2.01409 25.6889 2.45967L23.868 5.59765C23.7403 5.81776 23.5195 5.96796 23.2679 6.00597L19.8555 6.52137C19.2824 6.60793 19.0814 7.33156 19.5277 7.70136L22.0698 9.80744C22.3051 10.0024 22.4158 10.3099 22.3586 10.6101L21.6936 14.1022C21.5885 14.6542 22.168 15.0831 22.6652 14.8213L25.8784 13.1294C26.123 13.0007 26.4153 13.0007 26.6599 13.1294L29.873 14.8213C30.3703 15.0831 30.9498 14.6542 30.8447 14.1022L30.1797 10.6101C30.1225 10.3099 30.2332 10.0024 30.4685 9.80744L33.0106 7.70136C33.4569 7.33156 33.2559 6.60793 32.6827 6.52137L29.2704 6.00597C29.0187 5.96796 28.798 5.81776 28.6703 5.59765L26.8494 2.45967Z" fill="#A6A6A6"/>
<path d="M44.951 2.45967C44.6924 2.0141 44.049 2.01409 43.7904 2.45967L41.9696 5.59765C41.8419 5.81776 41.6211 5.96796 41.3695 6.00597L37.9571 6.52137C37.384 6.60793 37.1829 7.33156 37.6293 7.70136L40.1714 9.80744C40.4067 10.0024 40.5173 10.3099 40.4602 10.6101L39.7952 14.1022C39.6901 14.6542 40.2696 15.0831 40.7668 14.8213L43.98 13.1294C44.2246 13.0007 44.5169 13.0007 44.7614 13.1294L47.9746 14.8213C48.4718 15.0831 49.0513 14.6542 48.9462 14.1022L48.2813 10.6101C48.2241 10.3099 48.3347 10.0024 48.5701 9.80744L51.1121 7.70136C51.5585 7.33156 51.3574 6.60793 50.7843 6.52137L47.3719 6.00597C47.1203 5.96796 46.8995 5.81776 46.7718 5.59765L44.951 2.45967Z" fill="#A6A6A6"/>
<path d="M63.0525 2.45967C62.794 2.0141 62.1505 2.01409 61.892 2.45967L60.0712 5.59765C59.9434 5.81776 59.7227 5.96796 59.471 6.00597L56.0587 6.52137C55.4855 6.60793 55.2845 7.33156 55.7308 7.70136L58.2729 9.80744C58.5082 10.0024 58.6189 10.3099 58.5617 10.6101L57.8967 14.1022C57.7916 14.6542 58.3711 15.0831 58.8684 14.8213L62.0816 13.1294C62.3261 13.0007 62.6184 13.0007 62.863 13.1294L66.0762 14.8213C66.5734 15.0831 67.1529 14.6542 67.0478 14.1022L66.3828 10.6101C66.3257 10.3099 66.4363 10.0024 66.6716 9.80744L69.2137 7.70136C69.66 7.33156 69.459 6.60793 68.8859 6.52137L65.4735 6.00597C65.2219 5.96796 65.0011 5.81776 64.8734 5.59765L63.0525 2.45967Z" fill="#A6A6A6"/>
<path d="M81.1541 2.45967C80.8956 2.0141 80.2521 2.01409 79.9936 2.45967L78.1727 5.59765C78.045 5.81776 77.8242 5.96796 77.5726 6.00597L74.1602 6.52137C73.5871 6.60793 73.3861 7.33156 73.8324 7.70136L76.3745 9.80744C76.6098 10.0024 76.7204 10.3099 76.6633 10.6101L75.9983 14.1022C75.8932 14.6542 76.4727 15.0831 76.9699 14.8213L80.1831 13.1294C80.4277 13.0007 80.72 13.0007 80.9645 13.1294L84.1777 14.8213C84.675 15.0831 85.2545 14.6542 85.1494 14.1022L84.4844 10.6101C84.4272 10.3099 84.5379 10.0024 84.7732 9.80744L87.3153 7.70136C87.7616 7.33156 87.5606 6.60793 86.9874 6.52137L83.5751 6.00597C83.3234 5.96796 83.1027 5.81776 82.975 5.59765L81.1541 2.45967Z" fill="#A6A6A6"/>
</svg>
